#!OML:ASF F:\VICON\USERDATA\INSTALL\rory3\rory3.ASF
:FULLY-SPECIFIED
:DEGREES
97
root -0.0690824747154895 17.670643308954958 7.287972679668423 12.247223098413553 -2.983098233114613 -0.9855129710424215
lfemur -33.91333279560144 8.14330131271662 -18.871345642692127
ltibia 54.37407518360981
lfoot -7.319899925821817 0.4784838798215034
ltoes -10.087751319336157
rfemur -22.958755162582293 -0.7859918266041002 19.743055922769678
rtibia 31.095971156216212
rfoot -12.847469250577594 -0.5183695260540935
rtoes 9.225284378486025
lowerback 12.32499698078469 0.9572994777166832 -0.8397120834742933
upperback 4.985864179819116 1.1670427982999285 1.211273283191975
thorax 1.2816082728100575 0.4910973675684037 1.4224035968814728
lowerneck -15.107070089323104 0.4566125230156978 -1.1127834427746535
upperneck 20.588004163516583 0.6831221622123687 0.7293376722751911
head 9.117775714427088 0.35191404888479705 0.1498578287196739
lclavicle 5.748195811630172e-16 -3.125458030853296e-16
lhumerus -21.127955060272882 -3.4176787308212324 85.41284754752755
lradius 19.7988241759199
lwrist 15.361922745142694
lhand -26.85481502861261 -9.398829925200916
lfingers 7.125019999999998
lthumb -0.23624432806279072 20.650961257388136
rclavicle 5.728850929642046e-16 -3.157622135450043e-16
rhumerus -22.362025845203362 -15.245607890900475 -79.49410373374312
rradius 27.80372305039488
rwrist 31.403921085258844
rhand -22.162454251643258 -27.192889634070102
rfingers 7.125019999999998
rthumb 3.8019225451339813 -57.75643633843943
98
root -0.07251849086583839 17.735515175538474 7.018042815300001 12.277207761764904 -3.189566224169365 -1.0850929230958675
lfemur -34.12059292319761 8.489393793880309 -18.831089463486236
ltibia 53.15967048434716
lfoot -8.124082562911536 0.06485983758480973
ltoes -10.750151422556808
rfemur -21.70210447653116 -0.9350823750189274 19.887273061017318
rtibia 28.882359455141348
rfoot -12.881487480431897 -0.3152674515016254
rtoes 9.068742803960813
lowerback 12.788339425329362 0.8827790629030914 -0.7557635751485883
upperback 5.162953108862723 1.076986908648734 1.2209499865150724
thorax 1.447485604181388 0.4574820988734867 1.3080444056840306
lowerneck -15.136307170711394 0.5092990540229265 -1.0843596252957075
upperneck 20.616001876237778 0.7328846157599472 0.7328911897274056
head 9.221534450402755 0.37430260623780043 0.1273321277518651
lclavicle 5.756695220645185e-16 -3.1122513025316106e-16
lhumerus -20.640975954675774 -3.8125545730761665 84.94389993275145
lradius 20.17751257304871
lwrist 16.026981645062342
lhand -26.975486204809528 -9.470146085366288
lfingers 7.125019999999998
lthumb -0.2573972190952635 20.62393395415035
rclavicle 5.736581349395862e-16 -3.1458737888215306e-16
rhumerus -24.189244398147054 -16.768250883063047 -78.44522593421311
rradius 26.70998923723857
rwrist 33.181093252709864
rhand -21.803710872368352 -26.946357480554806
rfingers 7.125019999999998
rthumb 4.086337756041371 -57.52511765470583
99
root -0.08382939559290525 17.797548778437083 6.995444770803308 12.43029612469989 -3.0110086513170256 -1.0287232387911198
lfemur -33.94583790229255 8.503564822877658 -18.929357877530485
ltibia 50.96133762212217
lfoot -9.010441278371715 -0.461703310329451
ltoes -11.010758893245372
rfemur -20.876472966064814 -1.1666454052512134 19.904080206515196
rtibia 27.067323730265272
rfoot -12.720885558102747 -0.3277386074191728
rtoes 8.554060447974846
lowerback 12.370530477680706 0.7025549316555206 -0.7997263369939198
upperback 5.217365404762829 0.8649060526842991 1.1978413860079151
thorax 1.6366742662292326 0.36417355358776615 1.2690971508671813
lowerneck -15.017966184533883 0.5284443786894 -1.0885067216717679
upperneck 20.89217623909582 0.7526563595557745 0.8140163127322768
head 9.257465520961901 0.38207645813900004 0.15594833603306069
lclavicle 5.766133909374595e-16 -3.0978408018915123e-16
lhumerus -20.555327172792875 -4.825477324341229 84.59093016856886
lradius 21.014374795475728
lwrist 16.651064437796705
lhand -27.084165179162106 -9.617525018151358
lfingers 7.125019999999998
lthumb -0.23970681587757237 20.62140021395305
rclavicle 5.739183335196102e-16 -3.1419182329864367e-16
rhumerus -26.002675074699933 -17.834138334761178 -77.51170725372575
rradius 25.824168253531898
rwrist 34.253978524494634
rhand -21.406629299987582 -26.66005453221528
rfingers 7.125019999999998
rthumb 4.475439500805518 -57.193447647332086
100
root -0.0895477587073184 17.83180665597045 6.876074211847582 12.387730250446916 -2.833269149492838 -1.0305328135465235
lfemur -33.0473062603429 8.429197268960447 -18.896088176166284
ltibia 47.968746409386426
lfoot -9.29159216281727 -1.3049495310488242
ltoes -11.319175910249642
rfemur -19.520974926028355 -1.3308064798835535 19.961668118751703
rtibia 25.48007612861864
rfoot -12.471516296221347 -0.4857894947350352
rtoes 8.012731595186084
lowerback 11.878923513918293 0.5852661058849531 -0.7599622883405937
upperback 5.324413178494416 0.7420382070336395 1.19525534235113
thorax 1.8181045235575626 0.3115290971156438 1.2011107193206838
lowerneck -14.908300668416196 0.5251432771505763 -1.1113493970495738
upperneck 20.92850712810114 0.7685343552836503 0.8468997965121822
head 9.226299018955787 0.38433571753865436 0.17263255527591775
lclavicle 5.768697540858445e-16 -3.0936369760501093e-16
lhumerus -20.700069738160533 -5.755758025334677 84.18710297943376
lradius 21.913999943290282
lwrist 17.19538997253695
lhand -27.14833838658792 -9.718818651151585
lfingers 7.125019999999998
lthumb -0.180102225820309 20.54560679306228
rclavicle 5.739393681052882e-16 -3.141562523254009e-16
rhumerus -27.74984154152935 -18.312850217643355 -76.68931292983095
rradius 25.27080269078812
rwrist 34.46048894571591
rhand -21.00049038469289 -26.392453348693767
rfingers 7.125019999999998
rthumb 4.8275580329443475 -56.90849743587049
101
root -0.09823717137333371 17.912227958700196 6.783777337806095 11.908388998115802 -2.6802682331342425 -1.1326809775832745
lfemur -31.941528785344467 8.383534642087044 -18.768179094352014
ltibia 44.93864499598379
lfoot -9.144967195752109 -2.0852672696815366
ltoes -11.61337376605207
rfemur -18.426655764824886 -1.5745426324013756 20.00668720639144
rtibia 24.066580523996066
rfoot -12.266671826844748 -0.6132779103809507
rtoes 7.674886097362785
lowerback 11.325643966050077 0.48948883450492875 -0.6801752010017874
upperback 5.421871361281293 0.6402743549727847 1.2272583675833988
thorax 1.8407224158503954 0.2787397915360301 1.098541890587029
lowerneck -14.832003632336015 0.5125744601349569 -1.1237800396342335
upperneck 21.098244780765935 0.7610652473667454 0.8537091183398753
head 9.210219234482807 0.379997888543761 0.15781590141204088
lclavicle 5.756457879768688e-16 -3.1125231221308193e-16
lhumerus -20.751555531267144 -6.502490323854785 83.94267437001892
lradius 22.59136750817978
lwrist 17.121638490911735
lhand -27.10093601759776 -9.602116398678136
lfingers 7.125019999999998
lthumb 0.0024086243131634655 20.778880921950766
rclavicle 5.736120060284501e-16 -3.1465148235359696e-16
rhumerus -29.02369174871898 -18.198422916851396 -76.07756972335136
rradius 24.923878009405666
rwrist 34.23732659936773
rhand -20.634729751991497 -26.100656080497576
rfingers 7.125019999999998
rthumb 5.111930659088897 -56.59645824843064
102
root -0.1038045401261623 17.964541011076793 6.795053533493938 11.520910077041906 -2.5691493613352097 -1.2525112267234304
lfemur -31.310439909897458 8.261246802169218 -18.686359394296897
ltibia 42.64319480343292
lfoot -8.362350508919153 -2.6492374273066757
ltoes -11.547093741517982
rfemur -18.425351884014233 -1.8390111877153328 20.06729762163036
rtibia 23.268773856344033
rfoot -12.235556451469302 -0.6960138143310766
rtoes 7.393708339311367
lowerback 10.779401075636812 0.3961233313887156 -0.6607501246934588
upperback 5.476340809947319 0.5433620913224355 1.2947821107441522
thorax 1.8053462537647946 0.23287689580282547 1.1019602277363063
lowerneck -14.732782694053663 0.506075577802505 -1.1445041428619274
upperneck 21.29645574702909 0.7518240445593976 0.8832092236432297
head 9.242703809268317 0.37547530248171457 0.1484024054491233
lclavicle 5.764257726207561e-16 -3.1010519626352847e-16
lhumerus -20.678520197426327 -6.769979099672241 83.8931007921686
lradius 22.93966248082014
lwrist 16.413753013263033
lhand -26.85049028895627 -9.239855278737855
lfingers 7.125019999999998
lthumb 0.3466463261497023 21.257107054802514
rclavicle 5.746041699381298e-16 -3.131412627107121e-16
rhumerus -29.803996397725882 -17.56255447521588 -75.75938250241542
rradius 24.90410789836479
rwrist 33.68980298292179
rhand -20.362012718509757 -25.85907260687415
rfingers 7.125019999999998
rthumb 5.3978097034358665 -56.39656061854949
103
root -0.10447788667329849 17.9871625939417 6.98932867150598 11.14930768492629 -2.5169171105241936 -1.4121378907241926
lfemur -31.091999962479232 8.25527842667686 -18.632862653690772
ltibia 41.8039354296759
lfoot -7.119987947001603 -2.8474596698991297
ltoes -11.662347954583154
rfemur -18.581325287713728 -1.9513481995026338 20.255353633630538
rtibia 22.828751595755584
rfoot -12.453046199837063 -0.9538686771056111
rtoes 7.098623295549584
lowerback 10.41907868944812 0.3263092986288568 -0.6227215338481346
upperback 5.582960252584224 0.449315855534221 1.3872321405723116
thorax 1.6973077598188384 0.1865767930806678 1.139951283154039
lowerneck -14.702099400889137 0.505186375181134 -1.1967170352410221
upperneck 21.375899194841452 0.7483366357540773 0.922854467022852
head 9.220933148315654 0.37303850591605237 0.1510955711794294
lclavicle 5.758519674662161e-16 -3.108848312847086e-16
lhumerus -20.40468780402168 -6.4085483835815795 83.96464978385809
lradius 22.90566836617932
lwrist 15.906174814661808
lhand -26.54661064673145 -8.981537065256727
lfingers 7.125019999999998
lthumb 0.6560121103372857 21.68320883804004
rclavicle 5.751006950106948e-16 -3.123851863336831e-16
rhumerus -30.123316775088917 -16.65015800589792 -75.54052095101214
rradius 25.165926102018325
rwrist 33.190057543916325
rhand -20.169141149409462 -25.716948528250104
rfingers 7.125019999999998
rthumb 5.588877985997655 -56.31531887629528
104
root -0.10881938953824971 18.021850874532937 7.132073525389773 11.011202615469573 -2.613267953785478 -1.48561759628304
lfemur -30.65341689046032 8.439679948504367 -18.61327979679259
ltibia 41.77253431006755
lfoot -6.061233505026431 -3.0815717588716316
ltoes -12.994407694494088
rfemur -18.467470338234705 -1.845374433070145 20.391933539884977
rtibia 22.05840263345599
rfoot -12.756272530018876 -0.9454221151371573
rtoes 6.642756177747765
lowerback 10.240435320554875 0.30622579753543167 -0.6388294561766387
upperback 5.740509115072012 0.4254549873922607 1.408178146316639
thorax 1.4892988739026038 0.1832639405267237 1.1281518746269215
lowerneck -14.780728590797493 0.5017914966592162 -1.2455740756863607
upperneck 21.42946655100703 0.7425584232710014 0.9257367472633101
head 9.165768621307992 0.3802742476304306 0.1323620019363419
lclavicle 5.761711753353012e-16 -3.1022485015689053e-16
lhumerus -20.167387695418633 -5.507858151430344 84.08978601094869
lradius 22.580037234187326
lwrist 15.260240728891706
lhand -26.355947668760734 -8.69673965142518
lfingers 7.125019999999998
lthumb 0.8118320164544129 22.162708958580563
rclavicle 5.75074988468255e-16 -3.124215053398228e-16
rhumerus -30.062469468951168 -15.924844330273746 -75.41885601077809
rradius 25.530417005232437
rwrist 32.95294627609611
rhand -20.028691228125965 -25.61315120625776
rfingers 7.125019999999998
rthumb 5.736283679063116 -56.25238929494667
